<?xml version="1.0" encoding="UTF-8" standalone="no"?><svg xmlns="http://www.w3.org/2000/svg" xmlns:xlink="http://www.w3.org/1999/xlink" contentScriptType="application/ecmascript" contentStyleType="text/css" height="440px" preserveAspectRatio="none" style="width:337px;height:440px;" version="1.1" viewBox="0 0 337 440" width="337px" zoomAndPan="magnify"><defs><filter height="300%" id="fqvr05auk9qwg" width="300%" x="-1" y="-1"><feGaussianBlur result="blurOut" stdDeviation="2.0"/><feColorMatrix in="blurOut" result="blurOut2" type="matrix" values="0 0 0 0 0 0 0 0 0 0 0 0 0 0 0 0 0 0 .4 0"/><feOffset dx="4.0" dy="4.0" in="blurOut2" result="blurOut3"/><feBlend in="SourceGraphic" in2="blurOut3" mode="normal"/></filter></defs><g><text fill="#000000" font-family="sans-serif" font-size="18" lengthAdjust="spacingAndGlyphs" textLength="323" x="2" y="16.708">C1 — System Context — ROS2-AMR</text><!--MD5=[2571bb1592dc874a255a7701a0171bbf]
entity Operator--><ellipse cx="122.5" cy="38.4531" fill="#FEFECE" filter="url(#fqvr05auk9qwg)" rx="8" ry="8" style="stroke: #A80036; stroke-width: 1.5;"/><path d="M122.5,46.4531 L122.5,73.4531 M109.5,54.4531 L135.5,54.4531 M122.5,73.4531 L109.5,88.4531 M122.5,73.4531 L135.5,88.4531 " fill="none" filter="url(#fqvr05auk9qwg)" style="stroke: #A80036; stroke-width: 1.5;"/><text fill="#000000" font-family="sans-serif" font-size="14" lengthAdjust="spacingAndGlyphs" textLength="73" x="86" y="106.9482">Оператор</text><!--MD5=[abea0b42432aea0f9ce66e53feda8644]
entity System--><rect fill="#E3F2FD" filter="url(#fqvr05auk9qwg)" height="52.5938" style="stroke: #1565C0; stroke-width: 1.5;" width="95" x="75" y="216.9531"/><text fill="#000000" font-family="sans-serif" font-size="14" font-style="italic" lengthAdjust="spacingAndGlyphs" textLength="69" x="88" y="239.9482">«System»</text><text fill="#000000" font-family="sans-serif" font-size="14" lengthAdjust="spacingAndGlyphs" textLength="75" x="85" y="256.2451">ROS2-AMR</text><!--MD5=[b9d6b4b8c981340849ff32fa5497fbc4]
entity Env--><path d="M74.3807,385.4373 C78.699,380.3374 82.3071,379.5402 86.3077,385.7718 C89.4728,378.5285 95.0243,377.8318 99.4713,384.5645 C102.8474,379.5951 108.078,377.8819 111.5281,384.4875 C113.8307,377.1748 119.4861,375.55 124.4942,381.9246 C128.2089,377.549 133.4729,377.2626 135.7959,383.418 C140.1626,378.2856 143.7693,377.687 147.2937,384.2464 C152.6044,379.2957 157.5403,379.5993 161.0663,386.3475 C164.8006,381.1069 170.0011,379.9509 173.402,386.6907 C183.1569,387.342 186.5187,391.7881 182.5967,401.1416 C185.3332,410.4692 183.0023,416.8465 171.9146,416.6557 C168.821,422.7445 164.7045,423.4554 160.6449,417.5643 C158.2277,424.7113 153.386,424.3745 148.8264,419.7076 C145.1424,426.5407 140.9276,426.3772 135.667,421.4757 C132.4893,426.2197 128.1405,427.0024 124.3973,422.1391 C119.9374,427.9614 115.7239,428.2004 111.1091,422.315 C105.9467,428.0143 101.0233,426.8946 98.5396,419.703 C93.6807,424.1906 90.0768,423.2412 87.673,417.1751 C83.1112,421.9268 79.0832,422.158 75.3268,416.2429 C67.593,414.4765 64.7641,408.7831 69.6615,401.9944 C64.2964,394.7325 65.2658,388.5721 74.3807,385.4373 " fill="#FEFECE" style="stroke: #000000; stroke-width: 1.5;"/><text fill="#000000" font-family="sans-serif" font-size="14" lengthAdjust="spacingAndGlyphs" textLength="84" x="80.5" y="404.9482">Окружение</text><!--MD5=[2e765abc5c3817ff94d04efbda49abdd]
link Operator to System--><path d="M122.5,110.3431 C122.5,141.2731 122.5,183.4831 122.5,211.7931 " fill="none" id="Operator-&gt;System" style="stroke: #A80036; stroke-width: 1.0;"/><polygon fill="#A80036" points="122.5,216.9131,126.5,207.9131,122.5,211.9131,118.5,207.9131,122.5,216.9131" style="stroke: #A80036; stroke-width: 1.0;"/><text fill="#000000" font-family="sans-serif" font-size="13" lengthAdjust="spacingAndGlyphs" textLength="125" x="123.5" y="153.02">Управляет (WASD)</text><text fill="#000000" font-family="sans-serif" font-size="13" lengthAdjust="spacingAndGlyphs" textLength="91" x="140.5" y="168.1528">Смотрит RViz</text><text fill="#000000" font-family="sans-serif" font-size="13" lengthAdjust="spacingAndGlyphs" textLength="83" x="144.5" y="183.2856">Задаёт goal</text><!--MD5=[683ba867747fd4f6003a0b0e7b655d08]
link System to Env--><path d="M122.5,269.9631 C122.5,298.0431 122.5,343.0031 122.5,371.7431 " fill="none" id="System-&gt;Env" style="stroke: #A80036; stroke-width: 1.0;"/><polygon fill="#A80036" points="122.5,376.9131,126.5,367.9131,122.5,371.9131,118.5,367.9131,122.5,376.9131" style="stroke: #A80036; stroke-width: 1.0;"/><text fill="#000000" font-family="sans-serif" font-size="13" lengthAdjust="spacingAndGlyphs" textLength="124" x="123.5" y="313.02">Сканирует (LiDAR)</text><text fill="#000000" font-family="sans-serif" font-size="13" lengthAdjust="spacingAndGlyphs" textLength="109" x="131" y="328.1528">Видит (Camera)</text><text fill="#000000" font-family="sans-serif" font-size="13" lengthAdjust="spacingAndGlyphs" textLength="97" x="137" y="343.2856">Ездит по полу</text><!--MD5=[c02e9dfab0248d17e02472f25b15e04a]
@startuml
title C1 — System Context — ROS2-AMR

skinparam rectangle {
    BackgroundColor<<System>> #E3F2FD
    BorderColor<<System>> #1565C0
}

actor "Оператор" as Operator
rectangle "ROS2-AMR" as System <<System>>

Operator - -> System : Управляет (WASD)\nСмотрит RViz\nЗадаёт goal

cloud "Окружение" as Env
System - -> Env : Сканирует (LiDAR)\nВидит (Camera)\nЕздит по полу

@enduml

PlantUML version 1.2020.02(Sun Mar 01 13:22:07 MSK 2020)
(GPL source distribution)
Java Runtime: OpenJDK Runtime Environment
JVM: OpenJDK 64-Bit Server VM
Java Version: 11.0.31+11-post-1ubuntu1-22.04.2-Ubuntu
Operating System: Linux
Default Encoding: UTF-8
Language: en
Country: US
--></g></svg>